<?xml version="1.0" standalone="no"?>
<!DOCTYPE svg PUBLIC "-//W3C//DTD SVG 20010904//EN"
 "http://www.w3.org/TR/2001/REC-SVG-20010904/DTD/svg10.dtd">
<svg version="1.0" xmlns="http://www.w3.org/2000/svg"
 width="1024.000000pt" height="1024.000000pt" viewBox="0 0 1024.000000 1024.000000"
 preserveAspectRatio="xMidYMid meet">
<metadata>
Created by potrace 1.14, written by Peter Selinger 2001-2017
</metadata>
<g transform="translate(0.000000,1024.000000) scale(0.100000,-0.100000)"
fill="#000000" stroke="none">
<path d="M1691 8625 c-24 -7 -48 -12 -55 -10 -19 7 -171 -31 -158 -39 19 -12
14 -36 -8 -36 -11 0 -20 7 -20 15 0 20 -13 19 -60 -5 -22 -11 -46 -20 -54 -20
-9 0 -22 -13 -31 -30 -17 -32 -25 -36 -42 -19 -15 15 -33 3 -33 -22 0 -15 -5
-18 -23 -14 -50 13 -324 -237 -403 -367 -30 -49 -33 -60 -22 -77 15 -25 4 -39
-17 -21 -19 16 -24 12 -28 -29 -2 -17 -15 -44 -29 -59 -37 -39 -48 -65 -48
-112 0 -24 -10 -60 -26 -89 -18 -35 -25 -65 -25 -103 0 -29 -7 -72 -15 -96
-19 -57 -18 -72 6 -72 26 0 27 -36 0 -43 -16 -4 -18 -11 -13 -43 3 -22 9 -46
14 -54 4 -8 3 -23 -3 -33 -5 -11 -7 -33 -4 -51 4 -17 11 -61 16 -98 5 -36 16
-81 26 -100 9 -18 25 -64 35 -102 11 -42 28 -79 43 -95 14 -15 26 -38 26 -52
0 -33 8 -41 30 -29 13 7 20 6 24 -6 3 -9 3 -20 0 -25 -11 -19 6 -59 25 -59 14
0 18 -5 14 -18 -5 -19 46 -88 92 -123 13 -11 33 -34 44 -52 11 -18 39 -47 63
-64 24 -17 54 -41 67 -54 22 -21 25 -21 36 -6 16 23 29 21 22 -2 -7 -30 8 -44
46 -43 32 1 36 -2 42 -28 5 -23 12 -30 30 -30 12 0 44 -12 70 -27 26 -14 71
-32 99 -39 28 -7 66 -18 84 -26 30 -12 35 -11 46 5 17 22 25 22 35 -5 5 -14
17 -22 37 -24 209 -17 424 -11 424 12 0 10 13 14 40 14 60 0 151 27 167 50 11
15 19 18 31 11 19 -11 117 38 140 70 8 11 25 19 43 19 22 0 29 5 29 19 0 23
15 34 48 36 27 1 47 26 29 37 -9 5 -9 10 1 20 9 9 15 8 25 -6 12 -16 22 -8
116 91 121 127 129 139 100 148 -28 9 -19 29 16 35 23 4 31 12 36 36 3 17 9
36 12 41 9 14 -15 23 -40 17 -12 -3 -29 6 -47 25 -37 38 -76 42 -76 7 0 -14
-10 -30 -25 -40 -14 -9 -27 -26 -31 -39 -3 -12 -20 -31 -37 -42 -17 -11 -45
-39 -62 -62 -16 -23 -37 -42 -46 -42 -8 -1 -25 -15 -38 -32 -12 -16 -33 -34
-47 -39 -13 -5 -29 -21 -36 -35 -7 -16 -17 -24 -25 -20 -8 2 -47 -13 -86 -34
-88 -49 -218 -93 -272 -93 -22 0 -59 -7 -82 -15 -37 -14 -58 -14 -155 -4 -62
7 -139 16 -171 22 -43 8 -62 7 -73 -1 -17 -15 -45 -5 -38 13 3 9 -19 23 -73
44 -70 27 -79 29 -90 14 -10 -14 -12 -12 -18 12 -6 20 -15 30 -37 34 -16 3
-33 14 -38 24 -6 10 -42 43 -82 74 -75 59 -121 108 -178 188 -18 26 -39 47
-47 47 -7 0 -13 11 -13 24 0 18 -6 26 -22 28 -15 2 -22 11 -25 33 -4 39 -54
165 -65 165 -4 0 -8 15 -8 33 0 18 -9 67 -20 108 -11 41 -20 97 -20 125 0 27
-5 55 -12 62 -9 9 -9 17 2 36 8 16 11 44 8 76 -3 28 -1 53 3 56 5 3 9 21 9 41
0 39 50 197 81 254 10 20 19 48 19 62 0 17 7 28 20 32 11 3 34 34 52 68 41 80
190 228 287 286 39 23 70 47 68 54 -1 7 4 11 11 10 6 -2 12 6 12 17 0 23 4 24
28 9 15 -9 32 -5 88 21 87 41 148 60 192 60 25 0 40 7 54 25 22 28 38 32 38
10 0 -22 68 -20 93 2 18 17 19 17 32 0 8 -11 26 -17 49 -17 20 0 69 -9 108
-20 40 -11 89 -20 109 -20 21 0 47 -8 61 -20 40 -31 75 -42 82 -24 3 8 10 14
17 14 6 0 9 -6 6 -14 -7 -18 12 -36 38 -36 11 0 25 -10 30 -22 6 -13 18 -22
28 -22 10 1 25 -9 33 -22 9 -12 30 -32 47 -43 77 -50 90 -61 128 -112 22 -30
65 -80 95 -111 72 -76 105 -77 182 -5 36 35 36 35 17 61 -12 16 -17 17 -30 6
-16 -14 -45 -7 -45 11 0 6 9 13 20 16 11 3 20 9 20 14 0 11 -33 82 -41 89 -3
3 -51 46 -105 96 -156 144 -208 184 -233 177 -17 -4 -24 -1 -27 15 -4 14 -12
18 -25 15 -13 -4 -26 3 -39 19 -25 33 -136 76 -153 59 -16 -16 -22 -14 -35 13
-13 30 -79 40 -100 16 -11 -13 -12 -12 -10 4 4 26 -54 39 -140 33 -48 -4 -64
-1 -71 10 -7 14 -14 14 -59 0 -44 -12 -53 -13 -63 -1 -13 16 -12 16 -68 -1z
m39 -45 c0 -5 -4 -10 -10 -10 -5 0 -10 5 -10 10 0 6 5 10 10 10 6 0 10 -4 10
-10z m-120 -151 c0 -5 -4 -9 -10 -9 -5 0 -10 7 -10 16 0 8 5 12 10 9 6 -3 10
-10 10 -16z m500 -5 c0 -17 -26 -19 -36 -3 -7 12 15 31 28 23 4 -3 8 -12 8
-20z m-640 -5 c0 -5 -4 -9 -10 -9 -5 0 -10 7 -10 16 0 8 5 12 10 9 6 -3 10
-10 10 -16z m-45 -50 c0 -8 -10 -15 -22 -17 -25 -4 -30 7 -11 26 15 15 33 10
33 -9z m1135 17 c0 -11 -19 -15 -25 -6 -3 5 1 10 9 10 9 0 16 -2 16 -4z
m-1400 -136 c0 -5 -4 -10 -10 -10 -5 0 -10 5 -10 10 0 6 5 10 10 10 6 0 10 -4
10 -10z m1510 6 c0 -3 -4 -8 -10 -11 -5 -3 -10 -1 -10 4 0 6 5 11 10 11 6 0
10 -2 10 -4z m75 -75 c3 -5 1 -12 -5 -16 -5 -3 -10 1 -10 9 0 18 6 21 15 7z
m-1650 -11 c3 -5 1 -10 -4 -10 -6 0 -11 5 -11 10 0 6 2 10 4 10 3 0 8 -4 11
-10z m1705 -56 c0 -22 -2 -25 -15 -14 -8 7 -15 19 -15 26 0 8 7 14 15 14 10 0
15 -10 15 -26z m-1890 0 c0 -14 -3 -14 -15 -4 -8 7 -15 14 -15 16 0 2 7 4 15
4 8 0 15 -7 15 -16z m1840 -64 c0 -5 -12 -10 -27 -9 -25 0 -26 1 -8 9 27 12
35 12 35 0z m50 -65 c0 -16 -6 -25 -15 -25 -15 0 -21 31 -8 43 13 14 23 6 23
-18z m-1940 -1096 c0 -6 -4 -7 -10 -4 -5 3 -10 11 -10 16 0 6 5 7 10 4 6 -3
10 -11 10 -16z m-140 1 c0 -5 -7 -10 -15 -10 -8 0 -15 5 -15 10 0 6 7 10 15
10 8 0 15 -4 15 -10z m140 -136 c0 -18 -26 -18 -33 0 -3 8 -3 16 0 19 9 10 33
-5 33 -19z m1938 -62 c2 -15 -2 -22 -12 -22 -11 0 -16 9 -16 26 0 31 23 28 28
-4z m-1768 -112 c0 -5 -4 -10 -10 -10 -5 0 -10 5 -10 10 0 6 5 10 10 10 6 0
10 -4 10 -10z m1770 -10 c0 -11 -7 -20 -15 -20 -15 0 -21 21 -8 33 12 13 23 7
23 -13z m-1895 0 c-3 -5 -11 -10 -16 -10 -6 0 -7 5 -4 10 3 6 11 10 16 10 6 0
7 -4 4 -10z m1834 -54 c7 -8 8 -17 3 -19 -4 -3 -13 3 -20 14 -14 22 0 26 17 5z
m-1749 -16 c0 -5 -11 -10 -25 -10 -14 0 -25 5 -25 10 0 6 11 10 25 10 14 0 25
-4 25 -10z m50 -44 c0 -3 -4 -8 -10 -11 -5 -3 -10 -1 -10 4 0 6 5 11 10 11 6
0 10 -2 10 -4z m1643 -3 c9 -9 -12 -33 -29 -33 -8 0 -14 9 -14 20 0 19 28 28
43 13z m-1525 -14 c-2 -6 -8 -10 -13 -10 -5 0 -11 4 -13 10 -2 6 4 11 13 11 9
0 15 -5 13 -11z m942 -195 c0 -8 -4 -14 -10 -14 -5 0 -10 9 -10 21 0 11 5 17
10 14 6 -3 10 -13 10 -21z m-740 -10 c0 -8 -4 -12 -10 -9 -5 3 -10 10 -10 16
0 5 5 9 10 9 6 0 10 -7 10 -16z m180 -46 c0 -19 -2 -20 -10 -8 -13 19 -13 30
0 30 6 0 10 -10 10 -22z m188 -67 c3 -8 -1 -12 -9 -9 -7 2 -15 10 -17 17 -3 8
1 12 9 9 7 -2 15 -10 17 -17z"/>
<path d="M4986 8629 c-110 -7 -134 -12 -171 -34 -31 -18 -52 -23 -73 -19 -21
4 -46 -3 -90 -25 -33 -17 -63 -35 -67 -41 -3 -5 -19 -10 -35 -10 -25 0 -29 -4
-32 -32 -4 -38 -25 -48 -36 -17 -8 22 -9 22 -48 -13 -21 -19 -73 -60 -114 -90
-41 -31 -91 -74 -111 -95 -86 -91 -207 -273 -194 -292 3 -6 -7 -17 -23 -25
-23 -12 -33 -29 -50 -88 -14 -45 -19 -74 -12 -76 5 -2 10 -13 10 -25 -1 -21
-1 -21 -14 -4 -13 16 -16 12 -35 -44 -25 -75 -26 -106 -5 -130 14 -15 13 -18
-10 -36 -24 -19 -24 -23 -28 -177 -2 -124 0 -158 11 -165 8 -5 11 -16 7 -29
-4 -12 -2 -39 4 -60 5 -22 12 -57 14 -78 3 -22 22 -82 45 -134 34 -80 43 -95
60 -92 23 4 28 -17 10 -35 -13 -13 13 -63 63 -121 15 -18 28 -39 28 -47 0 -7
14 -23 30 -35 17 -12 30 -29 30 -39 0 -10 15 -24 35 -34 22 -10 35 -24 35 -36
0 -12 9 -21 25 -25 15 -4 25 -14 25 -24 0 -23 19 -42 41 -42 10 0 27 -13 38
-29 27 -38 172 -114 203 -106 18 4 27 -1 39 -23 11 -20 33 -34 76 -50 73 -27
69 -27 76 -1 7 27 33 19 30 -9 -2 -17 6 -24 40 -34 23 -7 68 -12 100 -11 42 1
60 -2 64 -13 7 -19 42 -18 65 3 17 15 20 15 51 -1 28 -16 41 -16 112 -6 44 7
94 12 110 12 51 -1 164 38 170 59 7 21 25 25 43 7 15 -15 93 15 137 53 18 16
42 29 54 29 12 0 21 6 20 13 -1 6 -1 21 0 32 1 18 3 18 14 4 28 -37 197 96
337 266 54 66 56 71 43 92 -19 28 -9 45 23 37 21 -5 24 -3 24 23 0 21 7 33 24
43 25 13 53 75 63 138 3 18 11 32 19 32 9 0 14 11 14 30 0 16 9 53 20 82 17
45 18 54 6 62 -11 8 -10 18 10 60 21 46 24 65 24 189 l0 137 -30 0 c-16 0 -30
5 -30 10 0 6 9 10 19 10 27 0 32 12 25 59 -4 27 -12 41 -26 44 -17 5 -18 9 -8
27 9 17 8 36 -6 88 -10 37 -24 71 -32 75 -8 6 -11 18 -8 32 4 17 -5 43 -31 87
-20 35 -43 69 -50 76 -7 7 -13 21 -13 31 0 10 -12 23 -26 30 -19 8 -25 17 -21
31 3 11 -4 27 -18 40 -22 21 -24 21 -34 3 -9 -15 -10 -12 -6 17 6 33 4 36 -27
45 -24 7 -34 17 -37 35 -1 14 -20 42 -42 63 -31 31 -42 36 -56 28 -15 -8 -20
-4 -28 27 -9 32 -15 38 -45 42 -27 4 -35 10 -35 25 0 14 -8 21 -25 24 -14 1
-43 20 -65 40 -22 20 -54 43 -72 50 -28 11 -34 11 -48 -3 -9 -8 -22 -13 -30
-10 -17 7 -19 20 -5 29 16 10 1 25 -24 25 -13 0 -41 7 -62 16 -30 12 -42 14
-57 5 -20 -13 -37 -7 -37 14 0 17 -18 21 -110 29 -36 3 -83 8 -105 10 -22 2
-98 0 -169 -5z m26 -51 c-15 -15 -26 -4 -18 18 5 13 9 15 18 6 9 -9 9 -15 0
-24z m128 -6 c0 -7 -4 -10 -10 -7 -5 3 -10 16 -10 28 0 18 2 19 10 7 5 -8 10
-21 10 -28z m131 15 c-13 -13 -26 -3 -16 12 3 6 11 8 17 5 6 -4 6 -10 -1 -17z
m-196 -57 c-3 -5 -10 -10 -16 -10 -5 0 -9 5 -9 10 0 6 7 10 16 10 8 0 12 -4 9
-10z m250 0 c3 -5 1 -10 -4 -10 -6 0 -11 5 -11 10 0 6 2 10 4 10 3 0 8 -4 11
-10z m-310 -60 c3 -5 -1 -10 -9 -10 -9 0 -16 5 -16 10 0 6 4 10 9 10 6 0 13
-4 16 -10z m135 -29 c0 -15 11 -19 73 -24 40 -4 93 -13 117 -22 25 -9 55 -13
66 -11 13 4 27 0 34 -9 7 -8 20 -15 30 -15 9 0 28 -8 41 -19 13 -10 43 -22 66
-25 22 -4 49 -16 59 -27 20 -22 44 -25 62 -7 9 9 12 7 12 -12 0 -24 25 -59 44
-61 6 -1 47 -41 91 -89 44 -49 87 -91 96 -95 9 -3 19 -19 23 -35 3 -19 14 -34
29 -39 18 -7 26 -20 31 -49 3 -22 20 -66 37 -98 17 -33 39 -92 50 -133 10 -41
24 -80 30 -87 16 -19 24 -289 11 -338 -8 -27 -8 -44 -1 -52 7 -8 3 -23 -12
-48 -13 -23 -19 -45 -15 -59 3 -14 -1 -32 -9 -43 -8 -10 -15 -30 -15 -44 0
-14 -7 -35 -15 -47 -30 -43 -65 -121 -65 -146 0 -17 -12 -35 -38 -56 -21 -16
-47 -48 -56 -70 -12 -25 -27 -42 -42 -45 -13 -4 -30 -19 -38 -35 -27 -51 -205
-180 -298 -215 -26 -10 -55 -27 -64 -37 -10 -11 -31 -19 -48 -19 -37 0 -61
-14 -52 -29 9 -14 -9 -14 -33 1 -15 9 -27 7 -60 -10 -29 -15 -47 -19 -63 -13
-25 9 -88 -4 -88 -19 0 -5 -20 -2 -44 6 -41 14 -47 14 -70 -2 -25 -16 -27 -16
-53 11 -23 22 -34 26 -63 21 -26 -4 -48 1 -84 19 -27 14 -67 25 -88 25 -25 0
-45 7 -58 20 -11 11 -26 20 -34 20 -16 0 -168 100 -206 136 -18 17 -32 22 -49
17 -22 -5 -23 -4 -18 19 6 22 2 28 -28 42 -21 10 -32 22 -29 30 3 8 -8 23 -25
36 -17 12 -31 27 -31 34 0 7 -11 28 -25 46 -14 19 -40 65 -57 102 -25 54 -34
66 -44 57 -14 -12 -19 2 -16 41 2 26 -38 133 -54 145 -13 9 -13 15 -3 38 10
21 10 38 0 79 -11 47 -11 203 1 373 1 17 -2 39 -7 50 -8 17 -7 18 7 7 13 -10
18 -2 39 60 13 40 24 80 24 89 1 8 11 28 23 44 12 15 22 38 22 52 0 13 7 26
15 29 8 3 25 22 37 42 55 91 168 215 219 243 13 7 32 23 42 36 18 22 57 43
235 123 40 19 77 40 81 49 7 12 14 13 33 4 15 -7 30 -8 39 -2 8 5 30 9 50 9
21 0 47 8 61 20 18 14 28 16 36 8 18 -18 82 -15 99 5 21 22 33 22 33 -2z m120
5 c0 -3 -4 -8 -10 -11 -5 -3 -10 -1 -10 4 0 6 5 11 10 11 6 0 10 -2 10 -4z
m120 -6 c0 -5 -4 -10 -10 -10 -5 0 -10 5 -10 10 0 6 5 10 10 10 6 0 10 -4 10
-10z m-936 -51 c-8 -13 -24 -1 -24 18 0 13 3 13 15 3 8 -7 12 -16 9 -21z
m-199 -179 c-3 -5 -11 -10 -16 -10 -6 0 -7 5 -4 10 3 6 11 10 16 10 6 0 7 -4
4 -10z m140 -20 c3 -5 -1 -10 -10 -10 -9 0 -13 5 -10 10 3 6 8 10 10 10 2 0 7
-4 10 -10z m-255 -98 c0 -13 -12 -22 -22 -16 -10 6 -1 24 13 24 5 0 9 -4 9 -8z
m125 -23 c11 -17 -1 -21 -15 -4 -8 9 -8 15 -2 15 6 0 14 -5 17 -11z m-186 -58
c16 -10 6 -31 -15 -31 -8 0 -14 9 -14 20 0 22 7 25 29 11z m11 -121 c0 -5 -6
-10 -14 -10 -8 0 -18 5 -21 10 -3 6 3 10 14 10 12 0 21 -4 21 -10z m2200 -200
c0 -5 -7 -10 -15 -10 -8 0 -15 5 -15 10 0 6 7 10 15 10 8 0 15 -4 15 -10z
m-75 -50 c3 -5 1 -10 -4 -10 -6 0 -11 5 -11 10 0 6 2 10 4 10 3 0 8 -4 11 -10z
m-11 -161 c-3 -5 -10 -7 -15 -3 -5 3 -7 10 -3 15 3 5 10 7 15 3 5 -3 7 -10 3
-15z m-3 -102 c-13 -13 -26 -3 -16 12 3 6 11 8 17 5 6 -4 6 -10 -1 -17z m139
-7 c0 -11 -6 -20 -14 -20 -21 0 -31 21 -15 31 22 14 29 11 29 -11z m-2457 -46
c8 -8 -3 -34 -14 -34 -5 0 -9 9 -9 20 0 19 11 26 23 14z m137 -20 c0 -9 -5
-14 -12 -12 -18 6 -21 28 -4 28 9 0 16 -7 16 -16z m-70 -49 c0 -8 -4 -15 -9
-15 -13 0 -22 16 -14 24 11 11 23 6 23 -9z m2387 -19 c-4 -9 -11 -16 -17 -16
-11 0 -14 33 -3 43 11 11 26 -10 20 -27z m-2317 -188 c0 -13 -23 -5 -28 10 -2
7 2 10 12 6 9 -3 16 -11 16 -16z m64 -56 c9 -14 -9 -31 -23 -23 -7 5 -10 14
-7 20 8 13 23 14 30 3z m2056 -72 c0 -5 -4 -10 -10 -10 -5 0 -10 5 -10 10 0 6
5 10 10 10 6 0 10 -4 10 -10z m60 -65 c0 -8 -4 -15 -10 -15 -5 0 -10 7 -10 15
0 8 5 15 10 15 6 0 10 -7 10 -15z m-2153 -137 c-3 -8 -6 -5 -6 6 -1 11 2 17 5
13 3 -3 4 -12 1 -19z m153 -108 c0 -5 -4 -10 -10 -10 -5 0 -10 5 -10 10 0 6 5
10 10 10 6 0 10 -4 10 -10z m80 -90 c0 -5 -7 -10 -15 -10 -8 0 -15 5 -15 10 0
6 7 10 15 10 8 0 15 -4 15 -10z m55 -40 c3 -5 1 -10 -4 -10 -6 0 -11 5 -11 10
0 6 2 10 4 10 3 0 8 -4 11 -10z m1255 -135 c0 -9 -6 -12 -15 -9 -8 4 -15 10
-15 15 0 5 7 9 15 9 8 0 15 -7 15 -15z m130 -16 c0 -5 -4 -9 -10 -9 -5 0 -10
7 -10 16 0 8 5 12 10 9 6 -3 10 -10 10 -16z m-130 -109 c0 -5 -2 -10 -4 -10
-3 0 -8 5 -11 10 -3 6 -1 10 4 10 6 0 11 -4 11 -10z m-20 -20 c0 -5 -2 -10 -4
-10 -3 0 -8 5 -11 10 -3 6 -1 10 4 10 6 0 11 -4 11 -10z m-180 -50 c0 -5 -4
-10 -10 -10 -5 0 -10 5 -10 10 0 6 5 10 10 10 6 0 10 -4 10 -10z m-255 -10 c3
-5 1 -10 -4 -10 -6 0 -11 5 -11 10 0 6 2 10 4 10 3 0 8 -4 11 -10z m-235 -4
c0 -11 -19 -15 -25 -6 -3 5 1 10 9 10 9 0 16 -2 16 -4z"/>
<path d="M7627 8569 c-11 -6 -38 -8 -68 -4 l-50 7 6 -36 c5 -24 3 -36 -4 -36
-15 0 -14 -75 1 -100 10 -16 10 -24 0 -40 -15 -25 -15 -45 0 -70 10 -16 9 -28
-5 -67 -16 -43 -16 -49 -2 -59 13 -9 14 -19 6 -53 -9 -42 -5 -77 10 -97 5 -6
5 -14 1 -18 -4 -4 -8 -152 -10 -329 -1 -177 -3 -333 -3 -347 0 -14 0 -72 1
-130 1 -58 -2 -124 -5 -147 -6 -36 -5 -43 9 -43 17 0 22 -25 7 -34 -15 -10
-24 -78 -11 -86 8 -5 9 -18 2 -46 -13 -51 -14 -168 -2 -200 7 -16 6 -39 -2
-69 -10 -38 -10 -47 5 -63 21 -23 22 -41 2 -48 -17 -7 -22 -84 -5 -84 6 0 10
-14 10 -31 0 -17 -4 -28 -10 -24 -6 4 -10 -10 -10 -34 0 -22 5 -43 11 -47 7
-4 9 -22 4 -50 -5 -36 -3 -44 14 -53 26 -14 31 -14 26 2 -7 19 11 41 29 34 9
-4 16 -16 16 -27 0 -16 6 -20 33 -20 30 0 36 5 52 41 15 33 17 47 8 80 -7 27
-7 51 0 79 8 29 8 45 -2 63 -11 20 -11 28 0 45 11 17 11 30 2 65 -9 33 -9 53
-1 80 9 29 8 42 -2 62 -10 19 -11 30 -2 50 14 31 16 82 3 90 -6 3 -6 18 0 38
12 41 12 107 0 107 -5 0 -4 17 1 40 7 25 7 45 1 53 -9 12 -10 174 0 183 3 3 3
51 0 107 -4 56 -5 116 -4 132 3 39 4 73 2 110 0 17 -1 76 0 133 1 57 -1 105
-4 108 -2 3 -3 71 -1 152 6 242 17 292 53 245 9 -11 50 -64 91 -118 41 -54 87
-108 102 -120 15 -13 30 -34 33 -48 4 -13 21 -39 40 -57 29 -28 35 -30 53 -19
27 17 42 3 17 -15 -17 -12 -17 -17 -5 -45 7 -18 24 -39 37 -48 12 -8 23 -20
23 -25 0 -14 90 -129 107 -135 7 -3 20 -18 28 -32 7 -15 27 -40 43 -57 17 -16
32 -38 34 -49 2 -12 13 -21 28 -24 30 -4 40 -17 40 -52 0 -15 7 -29 15 -33 8
-3 15 -1 15 5 0 6 5 7 10 4 6 -4 8 -15 5 -25 -4 -12 17 -46 63 -106 38 -49 87
-117 111 -152 23 -34 52 -69 65 -77 13 -8 28 -27 34 -40 7 -14 23 -30 37 -37
16 -7 25 -19 25 -34 0 -14 8 -25 20 -29 11 -4 27 -19 35 -35 8 -16 23 -35 33
-42 10 -7 22 -25 26 -40 7 -29 20 -36 31 -18 13 22 25 8 25 -29 0 -22 6 -44
15 -51 8 -6 17 -22 21 -33 4 -12 27 -45 53 -73 92 -102 171 -203 171 -218 0
-9 14 -23 31 -31 17 -9 35 -29 40 -45 7 -19 19 -29 40 -34 21 -4 29 -11 29
-26 0 -17 7 -20 40 -20 33 0 40 3 40 20 0 13 7 20 20 20 11 0 20 -7 20 -15 0
-21 17 -19 30 5 7 14 7 26 1 39 -8 14 -6 27 4 48 10 20 12 39 7 59 -5 16 -5
72 -2 124 5 67 3 106 -6 134 -8 23 -9 46 -4 55 12 23 15 72 6 98 -4 12 -2 40
5 61 9 33 9 43 -5 64 -15 23 -15 28 -1 54 18 36 18 42 1 76 -12 23 -12 29 0
45 18 24 18 63 -2 77 -13 10 -13 18 -2 59 10 39 10 52 -1 69 -9 14 -10 23 -2
31 14 14 14 77 1 113 -8 21 -7 31 5 44 14 16 14 22 1 61 -14 39 -14 45 -1 55
21 15 21 94 0 94 -18 0 -18 7 -4 48 7 21 7 42 0 68 -7 27 -7 42 1 51 7 9 7 25
0 55 -8 30 -8 54 0 84 9 32 9 49 0 69 -7 16 -9 33 -3 43 11 22 11 202 0 223
-5 10 -3 23 5 34 11 15 10 26 -1 66 -11 35 -11 53 -3 68 7 14 7 34 1 64 -6 23
-7 54 -4 66 5 22 4 23 -19 18 -14 -4 -40 -2 -57 4 -43 15 -78 4 -94 -29 -15
-29 -13 -47 11 -75 14 -16 13 -19 -6 -40 -29 -31 -29 -73 0 -80 20 -6 21 -7 5
-24 -23 -26 -25 -87 -4 -111 21 -23 21 -32 0 -32 -9 0 -14 -3 -11 -6 4 -3 2
-19 -2 -35 -5 -16 -5 -31 0 -34 5 -3 6 -35 3 -70 -5 -53 -3 -69 11 -84 16 -18
16 -20 1 -28 -14 -8 -15 -30 -12 -174 3 -90 8 -174 12 -186 6 -18 3 -23 -9
-23 -12 0 -15 -8 -12 -37 1 -21 6 -46 10 -55 4 -9 3 -25 -3 -37 -15 -28 -14
-62 4 -75 13 -10 13 -16 0 -51 -21 -59 -19 -90 8 -103 l22 -11 -22 -7 c-20 -5
-23 -13 -23 -55 0 -37 4 -49 15 -49 25 0 28 -27 6 -49 -24 -24 -28 -71 -7 -71
26 0 30 -23 7 -41 -21 -17 -21 -24 -19 -163 3 -125 1 -148 -14 -162 -30 -30
-63 -10 -129 79 -35 45 -75 93 -90 107 -15 14 -29 34 -31 45 -2 12 -12 21 -26
23 -13 2 -22 10 -22 21 0 27 -26 56 -52 56 -20 0 -23 5 -23 35 0 31 -3 35 -28
38 -20 2 -27 8 -25 20 4 28 -20 62 -39 55 -13 -5 -15 -2 -10 17 5 19 -7 39
-62 104 -37 45 -79 98 -93 119 -14 21 -35 45 -47 53 -12 9 -21 21 -21 29 0 7
-10 22 -23 32 -12 10 -28 31 -35 47 -9 20 -18 27 -32 23 -20 -5 -30 10 -30 44
0 14 -7 19 -25 19 -20 0 -25 5 -25 24 0 43 -9 57 -30 43 -24 -14 -37 -3 -21
17 7 8 9 21 5 28 -12 21 -105 139 -166 211 -32 37 -58 74 -58 82 0 8 -11 22
-25 31 -14 9 -25 22 -25 30 0 7 -13 23 -30 36 -16 12 -30 29 -30 39 0 9 -11
24 -25 33 -14 10 -31 29 -38 44 -18 43 -69 112 -83 112 -7 0 -14 -6 -17 -12
-2 -7 -8 -9 -13 -5 -4 4 -3 16 3 27 10 15 8 23 -8 44 -11 15 -26 23 -34 19
-10 -3 -15 2 -15 16 0 20 -43 86 -95 146 -14 17 -29 35 -33 41 -6 10 -46 34
-54 34 -2 0 -11 -5 -21 -11z m1786 -43 c3 -8 3 -17 0 -20 -7 -7 -33 13 -33 25
0 15 27 10 33 -5z m57 -66 c0 -24 -6 -25 -26 -6 -19 20 -18 26 6 26 13 0 20
-7 20 -20z m-72 -52 c-2 -6 -10 -14 -16 -16 -7 -2 -10 2 -6 12 7 18 28 22 22
4z m62 -68 c0 -5 -5 -10 -11 -10 -5 0 -7 5 -4 10 3 6 8 10 11 10 2 0 4 -4 4
-10z m-54 -76 c-3 -9 -6 -21 -6 -27 0 -6 -8 -3 -17 6 -16 16 -16 19 -3 27 22
14 33 12 26 -6z m-1498 -135 c-2 -6 -8 -10 -13 -10 -5 0 -11 4 -13 10 -2 6 4
11 13 11 9 0 15 -5 13 -11z m1562 -49 c0 -5 -7 -10 -15 -10 -8 0 -15 5 -15 10
0 6 7 10 15 10 8 0 15 -4 15 -10z m-1440 -74 c0 -3 -4 -8 -10 -11 -5 -3 -10
-1 -10 4 0 6 5 11 10 11 6 0 10 -2 10 -4z m-464 -83 c-10 -10 -19 5 -10 18 6
11 8 11 12 0 2 -7 1 -15 -2 -18z m74 -28 c0 -8 -4 -15 -10 -15 -5 0 -10 7 -10
15 0 8 5 15 10 15 6 0 10 -7 10 -15z m390 -4 c0 -20 -13 -41 -21 -35 -15 9
-10 44 6 44 8 0 15 -4 15 -9z m187 -87 c-9 -9 -28 6 -21 18 4 6 10 6 17 -1 6
-6 8 -13 4 -17z m39 -71 c-11 -11 -19 6 -11 24 8 17 8 17 12 0 3 -10 2 -21 -1
-24z m1202 -52 c3 -8 -1 -12 -9 -9 -7 2 -15 10 -17 17 -3 8 1 12 9 9 7 -2 15
-10 17 -17z m-44 -57 c4 -10 1 -14 -6 -12 -15 5 -23 28 -10 28 5 0 13 -7 16
-16z m-1154 -4 c0 -5 -4 -10 -10 -10 -5 0 -10 5 -10 10 0 6 5 10 10 10 6 0 10
-4 10 -10z m1135 -230 c3 -5 1 -10 -4 -10 -6 0 -11 5 -11 10 0 6 2 10 4 10 3
0 8 -4 11 -10z m-870 -130 c3 -5 -1 -10 -9 -10 -9 0 -16 5 -16 10 0 6 4 10 9
10 6 0 13 -4 16 -10z m-885 -30 c0 -5 -4 -10 -10 -10 -5 0 -10 5 -10 10 0 6 5
10 10 10 6 0 10 -4 10 -10z m-50 -39 c0 -5 -7 -11 -15 -15 -15 -5 -20 5 -8 17
9 10 23 9 23 -2z m1830 -91 c0 -5 -4 -10 -10 -10 -5 0 -10 5 -10 10 0 6 5 10
10 10 6 0 10 -4 10 -10z m50 -37 c0 -5 -5 -15 -10 -23 -8 -12 -10 -11 -10 8 0
12 5 22 10 22 6 0 10 -3 10 -7z m-1830 -214 c0 -5 -4 -9 -10 -9 -5 0 -10 7
-10 16 0 8 5 12 10 9 6 -3 10 -10 10 -16z m-74 -66 c-10 -10 -19 5 -10 18 6
11 8 11 12 0 2 -7 1 -15 -2 -18z m1921 1 c-3 -3 -12 -4 -19 -1 -8 3 -5 6 6 6
11 1 17 -2 13 -5z m-70 -66 c-3 -8 -6 -5 -6 6 -1 11 2 17 5 13 3 -3 4 -12 1
-19z m-1827 -61 c0 -20 -1 -20 -16 -5 -9 9 -13 21 -9 27 10 16 25 3 25 -22z
m1450 -57 c0 -5 -4 -10 -10 -10 -5 0 -10 5 -10 10 0 6 5 10 10 10 6 0 10 -4
10 -10z m-1464 -87 c-11 -11 -19 6 -11 24 8 17 8 17 12 0 3 -10 2 -21 -1 -24z
m82 -175 c-6 -18 -28 -21 -28 -4 0 9 7 16 16 16 9 0 14 -5 12 -12z m-60 -65
c2 -8 -5 -13 -17 -13 -12 0 -21 6 -21 16 0 18 31 15 38 -3z m52 -64 c0 -24
-23 -21 -28 4 -2 10 3 17 12 17 10 0 16 -9 16 -21z m1760 -9 c0 -5 -7 -10 -15
-10 -8 0 -15 5 -15 10 0 6 7 10 15 10 8 0 15 -4 15 -10z"/>
<path d="M2390 5213 c-26 -11 -39 -12 -52 -4 -23 14 -64 14 -90 0 -15 -8 -26
-8 -44 2 -19 10 -31 10 -62 0 -29 -10 -44 -10 -60 -2 -26 14 -65 14 -79 0 -8
-8 -26 -8 -64 0 -56 11 -278 9 -298 -3 -6 -4 -36 -2 -67 5 -44 10 -60 10 -76
0 -15 -9 -23 -9 -34 -1 -8 8 -30 10 -56 7 -66 -9 -311 -10 -331 -2 -9 4 -34 4
-55 -1 -20 -4 -58 -6 -84 -5 -89 5 -106 -17 -74 -94 9 -21 11 -37 5 -40 -23
-15 -7 -33 28 -33 21 0 54 -3 74 -7 21 -4 45 -2 56 3 14 8 31 7 63 -4 38 -13
44 -13 60 1 17 15 22 15 65 0 34 -11 51 -13 60 -5 8 7 32 8 63 4 29 -4 57 -2
70 5 16 8 21 7 26 -4 7 -18 29 -18 79 -1 20 8 40 10 43 5 3 -5 26 -9 52 -9 65
0 90 -9 99 -34 6 -20 14 -133 13 -186 -7 -197 -6 -211 18 -217 27 -6 29 -20 3
-28 -11 -3 -21 -19 -25 -37 -11 -55 -8 -68 17 -69 l22 0 -22 -11 c-28 -14 -31
-66 -6 -104 16 -25 16 -27 0 -36 -21 -11 -23 -67 -2 -94 19 -25 19 -34 0 -34
-11 0 -15 -11 -15 -40 0 -34 4 -42 25 -50 14 -5 25 -12 25 -15 0 -3 -11 -10
-25 -15 -19 -7 -25 -17 -25 -40 0 -17 5 -41 11 -52 8 -14 8 -23 0 -31 -16 -16
-14 -97 2 -97 19 0 36 -20 30 -36 -3 -8 -14 -14 -24 -14 -15 0 -19 -7 -19 -33
0 -18 6 -39 13 -46 9 -11 9 -14 0 -18 -18 -6 -6 -114 14 -130 17 -13 9 -33
-13 -33 -20 0 -19 -76 1 -84 19 -7 19 -32 0 -40 -18 -7 -19 -39 -1 -88 12 -32
12 -38 0 -38 -10 0 -14 -13 -14 -40 0 -31 5 -43 25 -56 14 -9 25 -20 25 -25 0
-5 -11 -9 -25 -9 -22 0 -25 -4 -25 -39 0 -31 4 -41 20 -46 25 -8 26 -21 0 -35
-16 -8 -19 -20 -18 -56 2 -38 6 -46 26 -51 28 -7 23 -29 -7 -26 -19 3 -21 -2
-21 -47 0 -44 2 -50 21 -50 12 0 23 -8 26 -20 4 -15 14 -20 38 -20 27 0 34 5
39 26 6 23 11 26 36 21 l28 -6 4 332 c2 183 0 337 -4 343 -4 6 -5 13 -3 16 7
7 8 194 6 896 -1 415 1 584 10 609 l11 35 86 -4 c48 -3 105 -1 128 3 27 5 57
3 87 -6 44 -13 46 -13 52 6 5 15 12 18 23 13 34 -15 94 -17 103 -3 7 11 13 11
38 -4 37 -21 59 -22 83 0 18 16 21 16 47 0 27 -16 63 -14 88 5 7 6 27 5 52 -3
55 -16 71 -2 71 61 0 26 -3 61 -6 78 -6 28 -9 30 -65 36 -36 4 -66 3 -79 -4
-16 -8 -25 -7 -42 5 -28 19 -62 19 -78 0 -7 -8 -20 -15 -30 -15 -10 0 -20 7
-24 15 -7 18 -21 18 -66 -2z m-1461 -42 c9 -6 11 -15 6 -27 -8 -18 -8 -18 -12
-1 -3 9 -9 17 -14 17 -5 0 -9 5 -9 10 0 12 10 13 29 1z m1118 -13 c-3 -8 -6
-5 -6 6 -1 11 2 17 5 13 3 -3 4 -12 1 -19z m142 -4 c3 -16 1 -17 -13 -5 -19
16 -21 34 -3 29 6 -3 14 -13 16 -24z m361 6 c0 -11 -4 -20 -10 -20 -5 0 -10 9
-10 20 0 11 5 20 10 20 6 0 10 -9 10 -20z m146 -19 c-10 -16 -36 -13 -43 5 -8
22 18 37 36 20 7 -8 10 -19 7 -25z m-381 19 c-3 -5 -10 -10 -16 -10 -5 0 -9 5
-9 10 0 6 7 10 16 10 8 0 12 -4 9 -10z m-890 -10 c3 -5 -1 -10 -10 -10 -9 0
-13 5 -10 10 3 6 8 10 10 10 2 0 7 -4 10 -10z m-425 -66 c0 -8 -7 -14 -15 -14
-10 0 -15 10 -15 26 0 22 2 25 15 14 8 -7 15 -19 15 -26z m360 22 c0 -8 -4
-18 -10 -21 -5 -3 -10 3 -10 14 0 12 5 21 10 21 6 0 10 -6 10 -14z m900 -1 c0
-8 -4 -15 -9 -15 -13 0 -22 16 -14 24 11 11 23 6 23 -9z m240 -10 c0 -14 -5
-25 -11 -25 -6 0 -9 7 -5 15 3 8 1 15 -4 15 -6 0 -10 5 -10 10 0 6 7 10 15 10
9 0 15 -9 15 -25z m129 6 c11 -20 5 -31 -16 -31 -7 0 -13 11 -13 25 0 29 15
33 29 6z m126 -6 c0 -28 -29 -25 -33 3 -3 19 0 23 15 20 10 -2 18 -12 18 -23z
m-1627 -3 c2 -7 -3 -12 -12 -12 -9 0 -16 7 -16 16 0 17 22 14 28 -4z m107 -12
c3 -5 1 -10 -4 -10 -6 0 -11 5 -11 10 0 6 2 10 4 10 3 0 8 -4 11 -10z m633
-622 c18 -18 15 -28 -8 -28 -13 0 -20 7 -20 20 0 23 10 26 28 8z m14 -263 c0
-5 -5 -11 -11 -13 -6 -2 -11 4 -11 13 0 9 5 15 11 13 6 -2 11 -8 11 -13z m-72
-69 c0 -3 -4 -8 -10 -11 -5 -3 -10 -1 -10 4 0 6 5 11 10 11 6 0 10 -2 10 -4z
m70 -56 c0 -10 -31 -23 -38 -15 -8 7 19 35 29 29 5 -3 9 -9 9 -14z m-76 -65
c3 -8 1 -15 -4 -15 -6 0 -10 7 -10 15 0 8 2 15 4 15 2 0 6 -7 10 -15z m53 -77
c-3 -8 -6 -5 -6 6 -1 11 2 17 5 13 3 -3 4 -12 1 -19z m-47 -39 c0 -5 -4 -9
-10 -9 -5 0 -10 7 -10 16 0 8 5 12 10 9 6 -3 10 -10 10 -16z m74 -80 c-8 -13
-21 -11 -27 5 -4 10 0 12 14 9 10 -3 16 -9 13 -14z m-104 -444 c0 -8 -4 -15
-10 -15 -5 0 -7 7 -4 15 4 8 8 15 10 15 2 0 4 -7 4 -15z m90 -75 c0 -5 -4 -10
-10 -10 -5 0 -10 5 -10 10 0 6 5 10 10 10 6 0 10 -4 10 -10z m-2 -123 c2 -10
-3 -17 -12 -17 -10 0 -16 9 -16 21 0 24 23 21 28 -4z m13 -243 c10 -13 10 -17
-2 -25 -24 -15 -49 -10 -49 9 0 35 28 43 51 16z m-73 -80 c-5 -28 -28 -29 -28
-1 0 13 3 27 7 31 10 10 25 -10 21 -30z"/>
<path d="M4197 5213 c-13 -13 -19 -14 -29 -5 -15 15 -194 17 -203 1 -5 -7 -25
-8 -56 -4 -33 5 -54 3 -64 -5 -22 -18 -18 -32 8 -28 12 1 23 -2 25 -7 1 -6 -8
-11 -20 -13 -22 -3 -23 -6 -25 -122 -1 -112 0 -120 18 -120 10 0 19 -7 19 -15
0 -13 -4 -14 -20 -5 -17 9 -20 8 -20 -13 0 -50 12 -85 31 -90 10 -3 19 -11 19
-17 0 -8 -9 -10 -26 -6 l-26 7 6 -58 c6 -67 6 -60 3 -218 -4 -174 -8 -778 -7
-1237 l0 -397 28 2 c18 1 27 -3 27 -13 0 -9 -9 -15 -22 -14 -16 0 -24 -7 -28
-28 -9 -38 0 -48 41 -48 27 0 34 4 34 19 0 41 38 32 53 -12 2 -7 14 -7 35 2
l32 13 2 152 c1 83 1 264 -1 402 l-4 250 28 23 c26 20 35 21 112 15 76 -6 83
-5 83 11 0 17 1 17 18 2 23 -21 60 -21 86 -2 12 9 23 11 30 5 7 -5 63 -8 126
-6 63 1 130 -2 148 -8 24 -7 42 -7 69 3 26 10 38 10 41 3 2 -7 21 -9 53 -5 62
7 163 -29 188 -67 8 -14 32 -46 52 -71 19 -26 41 -60 48 -78 8 -17 20 -31 27
-31 33 0 9 -33 -63 -86 -331 -244 -644 -556 -860 -856 l-84 -118 -1102 0
-1102 0 0 -60 0 -60 1063 0 c585 0 1062 -4 1060 -8 -1 -4 -29 -58 -61 -120
l-58 -112 70 0 69 0 23 48 c12 26 41 80 63 120 l40 72 191 0 190 0 0 60 0 60
-147 0 c-82 0 -148 4 -148 8 0 13 164 227 249 325 159 183 434 441 613 574
l57 43 30 -18 c21 -11 31 -25 31 -40 0 -13 15 -42 34 -65 18 -23 68 -93 111
-156 43 -63 87 -116 97 -119 10 -2 18 -12 18 -22 0 -34 12 -50 37 -50 16 0 27
-7 30 -19 5 -19 30 -31 66 -31 13 0 17 6 15 23 -2 17 2 23 23 25 19 2 28 -2
31 -16 4 -15 12 -18 37 -14 17 2 31 9 31 14 0 5 -16 28 -35 51 -19 22 -35 44
-35 49 0 4 -11 8 -24 8 -30 0 -42 16 -26 35 14 17 7 31 -23 47 -19 10 -20 9
-9 -4 10 -13 10 -17 -2 -21 -23 -9 -31 31 -11 53 16 18 15 22 -31 82 -26 35
-71 93 -101 129 -29 36 -60 82 -68 102 -11 28 -20 36 -36 34 -33 -3 -34 20 -1
51 88 82 638 376 917 491 271 112 583 217 817 276 120 31 138 32 131 5 -3 -11
-13 -20 -22 -20 -10 0 -31 -32 -59 -94 -36 -77 -42 -99 -37 -130 7 -33 5 -36
-17 -36 -21 0 -29 -10 -51 -65 -15 -36 -27 -72 -27 -81 0 -8 -8 -24 -18 -35
-11 -11 -24 -37 -31 -59 -6 -21 -32 -76 -56 -122 -25 -46 -45 -89 -45 -96 0
-8 -17 -48 -37 -90 -24 -49 -38 -92 -38 -117 0 -30 -4 -39 -16 -38 -15 3 -59
-72 -59 -101 0 -7 -9 -25 -20 -39 -13 -16 -20 -40 -20 -69 0 -37 -4 -47 -23
-55 -14 -7 -33 -34 -49 -73 l-27 -61 34 -15 c40 -17 77 -18 91 -4 8 8 20 7 39
0 33 -13 55 7 30 26 -19 14 -19 28 0 44 12 10 19 10 27 2 21 -21 30 -13 24 21
-5 27 -2 38 15 53 30 27 82 145 69 158 -16 16 -12 26 10 26 11 0 23 8 26 18 4
9 24 56 46 103 46 100 44 99 202 99 74 0 87 2 82 15 -7 19 8 20 23 1 9 -10 38
-14 111 -14 89 0 100 1 105 19 8 25 21 24 35 -1 14 -26 84 -28 99 -3 9 17 10
17 28 0 25 -22 81 -22 105 0 18 16 19 16 25 -6 5 -20 10 -22 42 -16 20 3 41
12 46 18 13 16 45 10 45 -9 0 -10 12 -14 40 -14 29 0 40 4 40 15 0 9 9 15 25
15 15 0 25 -6 25 -14 0 -8 13 -16 31 -18 25 -4 32 -1 39 18 7 16 15 21 29 17
11 -3 19 -10 18 -17 -1 -6 14 -12 35 -14 29 -2 40 2 50 17 15 25 27 26 43 5 8
-12 37 -19 99 -24 102 -10 128 -24 144 -77 6 -21 25 -54 42 -73 16 -18 30 -42
30 -52 0 -10 11 -40 24 -66 13 -26 29 -66 35 -90 9 -31 17 -42 32 -42 25 0 36
-27 20 -52 -10 -16 -9 -24 3 -43 23 -35 43 -42 121 -43 100 -2 105 1 93 46 -5
20 -20 55 -33 77 -12 22 -28 58 -35 80 -7 22 -19 44 -27 48 -7 5 -11 12 -8 17
5 9 -48 122 -70 150 -7 8 -15 27 -19 42 -3 15 -15 30 -26 33 -21 7 -26 20 -11
30 11 6 -24 106 -68 193 -16 32 -34 76 -40 99 -6 22 -18 46 -26 53 -8 7 -15
19 -15 27 0 8 -9 26 -20 40 -11 14 -20 34 -20 44 0 9 -18 55 -40 100 -22 46
-40 90 -40 99 0 9 -9 25 -20 35 -10 9 -29 46 -40 81 -13 37 -30 69 -41 74 -12
7 -19 21 -19 39 0 16 -14 59 -30 97 -17 37 -28 70 -24 73 11 11 548 5 689 -8
166 -15 453 -62 583 -95 l92 -23 0 77 0 78 -107 16 c-312 46 -555 60 -953 53
-179 -3 -333 -9 -342 -12 -13 -5 -18 -2 -18 8 0 9 -20 55 -44 104 -24 48 -46
96 -50 106 -3 9 -14 17 -24 17 -15 0 -19 8 -19 43 -1 47 -37 135 -59 144 -8 3
-14 19 -14 39 0 28 -4 34 -21 34 -17 0 -20 4 -15 24 7 29 -37 134 -65 154 -12
8 -19 25 -19 46 0 19 -7 39 -15 46 -12 10 -15 10 -15 -4 0 -23 -27 -20 -35 4
-5 16 -15 20 -47 20 -31 0 -41 -4 -45 -20 -6 -24 -20 -25 -44 -4 -10 9 -23 13
-28 9 -14 -8 -14 -42 -1 -50 15 -9 -9 -37 -27 -31 -8 3 -15 -5 -19 -22 -4 -15
-24 -62 -45 -104 -29 -58 -37 -85 -33 -107 5 -25 3 -30 -17 -33 -17 -2 -26
-13 -34 -39 -5 -19 -25 -63 -43 -97 -19 -36 -31 -70 -28 -80 4 -12 -8 -37 -34
-72 -59 -78 -93 -156 -86 -192 5 -24 2 -31 -14 -35 -12 -3 -27 -18 -36 -34 -8
-16 -20 -29 -28 -29 -21 0 -362 -96 -491 -139 -496 -163 -920 -358 -1338 -614
-79 -48 -101 -57 -108 -46 -5 8 -9 17 -9 21 0 5 -16 25 -35 46 -37 42 -57 84
-49 105 3 8 23 24 44 36 122 68 230 157 230 189 0 14 9 21 31 26 25 5 30 10
26 25 -3 13 3 22 20 30 27 13 103 159 103 200 0 15 9 50 20 80 19 48 19 55 5
71 -19 21 -19 30 0 30 26 0 20 78 -7 101 l-23 19 23 6 c18 5 22 13 22 50 0 32
-4 44 -15 44 -18 0 -19 14 -3 39 9 15 7 29 -10 69 -12 28 -22 58 -22 66 0 10
-9 16 -21 16 -18 0 -21 5 -16 33 4 26 -4 45 -45 104 -53 76 -112 136 -153 155
-14 6 -27 19 -30 28 -8 25 -46 33 -60 13 -16 -22 -38 -6 -32 23 3 20 -1 25
-22 30 -14 3 -50 17 -79 31 -40 19 -57 22 -65 14 -8 -8 -8 -11 1 -11 7 0 12
-9 12 -20 0 -11 -6 -20 -14 -20 -8 0 -14 6 -13 13 2 51 -1 53 -74 64 -46 8
-80 8 -96 2 -14 -5 -30 -6 -36 -2 -17 11 -198 13 -216 3 -8 -4 -28 -4 -45 1
-20 6 -43 5 -64 -2 -25 -8 -37 -8 -45 0 -15 15 -84 14 -89 -1 -3 -9 -11 -9
-34 0 -16 7 -54 11 -84 10 -30 -2 -71 0 -90 5 -27 5 -40 3 -53 -10z m-67 -43
c0 -5 -4 -10 -10 -10 -5 0 -10 5 -10 10 0 6 5 10 10 10 6 0 10 -4 10 -10z
m508 -8 c3 -9 -2 -13 -14 -10 -9 1 -19 9 -22 16 -3 9 2 13 14 10 9 -1 19 -9
22 -16z m379 -14 c-3 -7 -5 -2 -5 12 0 14 2 19 5 13 2 -7 2 -19 0 -25z m-497
6 c0 -9 -7 -14 -17 -12 -25 5 -28 28 -4 28 12 0 21 -6 21 -16z m248 4 c-7 -19
-38 -22 -38 -4 0 10 9 16 21 16 12 0 19 -5 17 -12z m-508 -18 c0 -5 -4 -10 -9
-10 -6 0 -13 5 -16 10 -3 6 1 10 9 10 9 0 16 -4 16 -10z m65 -40 c0 -7 -6 -15
-12 -17 -8 -3 -13 4 -13 17 0 13 5 20 13 18 6 -3 12 -11 12 -18z m361 5 c-3
-8 -1 -15 5 -15 6 0 7 -5 3 -11 -10 -16 -26 5 -18 24 3 9 8 17 11 17 3 0 3 -7
-1 -15z m264 -16 c0 -11 -4 -17 -10 -14 -5 3 -10 15 -10 26 0 11 5 17 10 14 6
-3 10 -15 10 -26z m-390 0 c0 -5 -4 -9 -10 -9 -5 0 -10 7 -10 16 0 8 5 12 10
9 6 -3 10 -10 10 -16z m649 7 c9 -11 8 -15 -5 -20 -20 -8 -34 1 -34 20 0 18
24 18 39 0z m-934 -56 c8 -13 68 -13 81 0 6 6 23 6 47 -2 28 -9 43 -8 63 1 19
9 35 9 64 0 30 -9 46 -9 69 1 25 10 34 9 60 -6 28 -17 31 -17 56 0 21 14 32
16 53 7 15 -6 50 -10 77 -9 28 1 66 -2 86 -6 27 -6 39 -4 51 8 15 14 17 13 32
-9 11 -16 25 -24 43 -23 16 0 56 -3 90 -7 47 -6 64 -12 68 -26 3 -10 25 -29
48 -42 63 -37 133 -111 173 -183 20 -35 44 -70 53 -77 11 -7 18 -26 18 -47 1
-19 6 -75 12 -125 7 -60 7 -111 1 -152 -6 -33 -7 -68 -4 -77 3 -8 -1 -23 -10
-31 -9 -9 -16 -22 -16 -29 0 -8 -9 -35 -21 -60 -11 -26 -18 -54 -15 -63 4 -10
-3 -18 -23 -26 -20 -7 -31 -20 -35 -39 -4 -19 -13 -29 -31 -34 -17 -4 -25 -13
-25 -29 0 -20 -15 -27 -139 -69 -76 -26 -165 -50 -197 -53 -33 -3 -64 -10 -71
-15 -6 -5 -22 -6 -36 -3 -14 4 -35 2 -47 -5 -16 -8 -30 -8 -57 1 -27 9 -45 9
-75 0 -34 -11 -43 -10 -57 3 -16 14 -22 15 -59 2 -31 -11 -48 -12 -76 -4 -27
9 -42 8 -62 -1 -22 -10 -30 -9 -44 4 -15 13 -22 13 -69 -1 -47 -14 -55 -14
-70 0 -12 11 -26 13 -51 8 -19 -4 -60 -6 -92 -4 -71 5 -95 25 -103 89 -3 27
-9 62 -13 78 -5 17 -5 41 -1 55 4 14 7 40 8 58 1 26 -3 32 -20 32 -12 0 -17 4
-14 11 4 6 13 8 21 5 12 -4 14 16 14 112 0 77 -4 122 -12 130 -9 9 -9 18 0 37
7 14 12 64 12 111 l0 85 -30 13 c-31 13 -30 26 2 26 10 0 18 6 18 14 0 7 3 28
6 45 6 28 4 31 -20 31 -16 0 -26 6 -26 14 0 21 21 31 30 15 13 -19 20 20 23
126 l2 90 35 17 c19 9 53 16 75 16 22 0 51 5 65 10 33 14 57 14 65 2z m1123
-7 c-2 -10 -10 -18 -18 -18 -8 0 -16 8 -18 18 -2 12 3 17 18 17 15 0 20 -5 18
-17z m-248 -3 c0 -5 -4 -10 -10 -10 -5 0 -10 5 -10 10 0 6 5 10 10 10 6 0 10
-4 10 -10z m117 -16 c-3 -3 -12 -4 -19 -1 -8 3 -5 6 6 6 11 1 17 -2 13 -5z
m2549 -72 c9 -10 34 -60 56 -110 35 -79 44 -92 64 -92 13 0 24 -4 24 -10 0 -5
-7 -10 -16 -10 -11 0 -14 -6 -8 -22 18 -59 45 -108 63 -117 16 -9 19 -18 15
-39 -3 -16 3 -48 14 -78 l20 -50 -111 -12 c-62 -6 -181 -23 -266 -37 -85 -14
-156 -24 -158 -21 -2 2 7 29 21 60 19 43 23 63 16 80 -10 26 -5 37 14 30 16
-6 80 130 73 156 -3 13 0 20 8 20 13 0 28 30 29 58 1 7 6 16 11 20 10 7 32 49
74 145 23 51 33 57 57 29z m-2226 -108 c0 -8 -5 -12 -10 -9 -6 4 -8 11 -5 16
9 14 15 11 15 -7z m-70 -70 c0 -17 -22 -14 -28 4 -2 7 3 12 12 12 9 0 16 -7
16 -16z m1994 -79 c-7 -16 -30 -20 -38 -6 -7 11 4 21 25 21 12 0 16 -5 13 -15z
m498 -7 c-9 -9 -15 -9 -24 0 -9 9 -7 12 12 12 19 0 21 -3 12 -12z m63 -59 c12
-19 -5 -23 -22 -6 -16 16 -16 17 -1 17 9 0 20 -5 23 -11z m-585 -69 c0 -5 -4
-10 -10 -10 -5 0 -10 5 -10 10 0 6 5 10 10 10 6 0 10 -4 10 -10z m-3610 -51
c0 -5 -7 -9 -15 -9 -9 0 -15 9 -15 21 0 18 2 19 15 9 8 -7 15 -16 15 -21z
m1764 10 c-3 -5 -10 -7 -15 -3 -5 3 -7 10 -3 15 3 5 10 7 15 3 5 -3 7 -10 3
-15z m2425 -25 c-13 -16 -29 -10 -29 11 0 8 7 11 20 8 16 -4 18 -8 9 -19z
m136 6 c-3 -5 -10 -10 -16 -10 -5 0 -9 5 -9 10 0 6 7 10 16 10 8 0 12 -4 9
-10z m-825 -71 c0 -5 -4 -9 -10 -9 -5 0 -10 7 -10 16 0 8 5 12 10 9 6 -3 10
-10 10 -16z m707 -91 c5 -7 23 -44 38 -82 16 -37 41 -84 57 -103 15 -20 25
-39 22 -44 -10 -16 7 -51 22 -45 13 5 19 -9 16 -44 -1 -8 10 -45 24 -82 20
-53 30 -68 46 -68 17 0 19 -4 14 -26 -4 -14 -3 -31 2 -37 5 -7 22 -43 37 -82
15 -38 33 -80 41 -93 9 -13 14 -40 12 -65 l-3 -42 -45 -2 c-140 -8 -167 -14
-180 -39 -17 -31 -32 -31 -24 0 6 24 4 24 -68 28 -40 1 -175 1 -300 -1 l-227
-3 -3 -26 c-4 -38 -28 -41 -28 -3 0 29 -1 30 -45 29 -31 0 -49 -6 -55 -17 -9
-14 -10 -14 -15 4 -6 19 -13 20 -132 17 -161 -5 -166 2 -102 128 15 30 33 75
40 100 7 25 23 61 36 80 13 19 23 39 23 43 0 5 7 24 16 43 9 19 14 43 11 53
-3 13 1 21 14 24 12 3 19 14 19 29 0 38 11 67 27 70 8 2 28 36 43 77 16 41 36
81 43 88 14 15 281 62 486 87 64 8 119 14 122 15 4 1 11 -5 16 -11z m53 -52
c-14 -14 -22 -2 -14 18 5 14 9 15 15 4 4 -7 4 -17 -1 -22z m-4270 -16 c0 -5
-4 -10 -10 -10 -5 0 -10 5 -10 10 0 6 5 10 10 10 6 0 10 -4 10 -10z m140 -10
c0 -5 -4 -10 -10 -10 -5 0 -10 5 -10 10 0 6 5 10 10 10 6 0 10 -4 10 -10z
m4310 -5 c0 -8 -7 -15 -15 -15 -16 0 -20 12 -8 23 11 12 23 8 23 -8z m-920
-81 c0 -20 -19 -27 -35 -14 -22 18 -18 28 10 28 14 0 25 -6 25 -14z m-1890
-23 c0 -12 -20 -25 -27 -18 -7 7 6 27 18 27 5 0 9 -4 9 -9z m2880 -88 c0 -5
-5 -15 -10 -23 -8 -12 -10 -11 -10 8 0 12 5 22 10 22 6 0 10 -3 10 -7z m-1207
-78 c-7 -21 -13 -19 -13 6 0 11 4 18 10 14 5 -3 7 -12 3 -20z m1264 -11 c-3
-3 -12 -4 -19 -1 -8 3 -5 6 6 6 11 1 17 -2 13 -5z m-66 -67 c-16 -16 -25 -1
-10 16 8 8 16 11 18 5 2 -5 -2 -15 -8 -21z m77 -52 c-3 -3 -13 -2 -22 1 -14 5
-15 9 -4 15 13 8 36 -6 26 -16z m-4078 -75 c0 -5 -4 -10 -10 -10 -5 0 -10 5
-10 10 0 6 5 10 10 10 6 0 10 -4 10 -10z m490 -10 c0 -5 -5 -10 -11 -10 -5 0
-7 5 -4 10 3 6 8 10 11 10 2 0 4 -4 4 -10z m-228 -32 c-6 -6 -15 -8 -19 -4 -4
4 -1 11 7 16 19 12 27 3 12 -12z m-302 -34 c0 -13 -21 -44 -30 -44 -11 0 -14
33 -3 43 8 8 33 9 33 1z m97 -26 c-3 -7 -5 -2 -5 12 0 14 2 19 5 13 2 -7 2
-19 0 -25z m133 12 c0 -5 -4 -10 -9 -10 -6 0 -13 5 -16 10 -3 6 1 10 9 10 9 0
16 -4 16 -10z m380 -5 c0 -8 -4 -15 -9 -15 -13 0 -22 16 -14 24 11 11 23 6 23
-9z m-126 -10 c-6 -16 -24 -21 -24 -7 0 11 11 22 21 22 5 0 6 -7 3 -15z m2986
-211 c0 -14 -4 -23 -10 -19 -5 3 -10 15 -10 26 0 10 5 19 10 19 6 0 10 -12 10
-26z m130 22 c0 -15 -14 -35 -21 -30 -15 9 -10 34 6 34 8 0 15 -2 15 -4z m148
-18 c-3 -7 -11 -13 -18 -13 -7 0 -15 6 -17 13 -3 7 4 12 17 12 13 0 20 -5 18
-12z m-4140 -39 c-2 -6 -8 -10 -13 -10 -5 0 -11 4 -13 10 -2 6 4 11 13 11 9 0
15 -5 13 -11z m3692 -23 c0 -22 -16 -28 -29 -12 -9 11 -9 15 1 19 22 9 28 8
28 -7z m240 -2 c0 -17 -22 -14 -28 4 -2 7 3 12 12 12 9 0 16 -7 16 -16z m140
6 c0 -5 -4 -10 -10 -10 -5 0 -10 5 -10 10 0 6 5 10 10 10 6 0 10 -4 10 -10z
m120 -9 c0 -6 -4 -13 -10 -16 -5 -3 -10 1 -10 9 0 9 5 16 10 16 6 0 10 -4 10
-9z m-4255 -21 c3 -5 -1 -10 -9 -10 -8 0 -18 5 -21 10 -3 6 1 10 9 10 8 0 18
-4 21 -10z m1455 -70 c0 -5 -7 -10 -15 -10 -8 0 -15 5 -15 10 0 6 7 10 15 10
8 0 15 -4 15 -10z m-1340 -80 c0 -5 -4 -10 -10 -10 -5 0 -10 5 -10 10 0 6 5
10 10 10 6 0 10 -4 10 -10z m2950 -21 c0 -6 -4 -7 -10 -4 -5 3 -10 11 -10 16
0 6 5 7 10 4 6 -3 10 -11 10 -16z m-1610 -23 c0 -11 -19 -15 -25 -6 -3 5 1 10
9 10 9 0 16 -2 16 -4z m-1390 -16 c0 -5 -6 -10 -14 -10 -8 0 -18 5 -21 10 -3
6 3 10 14 10 12 0 21 -4 21 -10z m60 -51 c0 -5 -4 -9 -10 -9 -5 0 -10 7 -10
16 0 8 5 12 10 9 6 -3 10 -10 10 -16z m4823 -50 c-7 -7 -20 -8 -30 -5 -17 7
-17 8 1 22 23 17 48 2 29 -17z m-2038 11 c3 -5 1 -10 -4 -10 -6 0 -11 5 -11
10 0 6 2 10 4 10 3 0 8 -4 11 -10z m1915 0 c0 -5 -5 -10 -11 -10 -5 0 -7 5 -4
10 3 6 8 10 11 10 2 0 4 -4 4 -10z m-3261 -31 c-19 -12 -24 -2 -8 17 9 11 14
13 17 4 3 -7 -2 -16 -9 -21z m141 10 c0 -5 -10 -9 -21 -9 -18 0 -19 2 -9 15
12 15 30 12 30 -6z m1147 -41 c-3 -8 -6 -5 -6 6 -1 11 2 17 5 13 3 -3 4 -12 1
-19z m-2859 -26 c2 -7 -3 -12 -12 -12 -9 0 -16 7 -16 16 0 17 22 14 28 -4z
m132 -2 c0 -5 -5 -10 -11 -10 -5 0 -7 5 -4 10 3 6 8 10 11 10 2 0 4 -4 4 -10z
m2810 -25 c0 -8 -6 -15 -14 -15 -17 0 -28 14 -19 24 12 12 33 6 33 -9z m2015
-15 c3 -5 -3 -10 -15 -10 -12 0 -18 5 -15 10 3 6 10 10 15 10 5 0 12 -4 15
-10z m-3248 -25 c3 -9 3 -19 -1 -22 -7 -7 -36 16 -36 28 0 15 30 10 37 -6z
m-1657 -15 c0 -5 -2 -10 -4 -10 -3 0 -8 5 -11 10 -3 6 -1 10 4 10 6 0 11 -4
11 -10z m2812 -22 c-9 -9 -12 -7 -12 12 0 19 3 21 12 12 9 -9 9 -15 0 -24z
m2143 12 c0 -7 -6 -15 -12 -17 -8 -3 -13 4 -13 17 0 13 5 20 13 18 6 -3 12
-11 12 -18z m-4878 -36 c8 -21 -13 -42 -28 -27 -13 13 -5 43 11 43 6 0 13 -7
17 -16z m1638 -9 c0 -28 -29 -25 -33 3 -3 19 0 23 15 20 10 -2 18 -12 18 -23z
m3185 -10 c9 -11 10 -19 2 -27 -14 -14 -32 -1 -32 23 0 23 13 25 30 4z m120
-4 c0 -23 -16 -36 -25 -21 -9 14 1 40 15 40 5 0 10 -9 10 -19z m-2250 -16 c0
-28 -3 -29 -30 -15 -23 13 -16 40 11 40 14 0 19 -7 19 -25z"/>
<path d="M9565 2876 c-384 -140 -677 -292 -974 -503 l-74 -53 -306 0 -306 0 0
-60 0 -60 230 0 230 0 -125 -119 -125 -120 73 0 74 -1 129 120 130 120 574 0
575 0 0 60 0 60 -491 0 c-326 0 -488 3 -484 10 7 12 200 139 290 192 174 102
413 214 593 278 l92 33 0 38 c0 22 -3 39 -7 39 -5 -1 -48 -16 -98 -34z"/>
<path d="M550 2260 l0 -60 578 0 577 0 0 60 0 60 -577 0 -578 0 0 -60z"/>
<path d="M4800 2290 c5 -17 5 -43 0 -60 l-9 -30 1447 0 1447 0 0 60 0 60
-1447 0 -1447 0 9 -30z"/>
</g>
</svg>
